<?xml version="1.0" encoding="utf-8"?>
<!-- Generator: Adobe Illustrator 23.0.6, SVG Export Plug-In . SVG Version: 6.00 Build 0)  -->
<svg version="1.1" xmlns="http://www.w3.org/2000/svg" xmlns:xlink="http://www.w3.org/1999/xlink" x="0px" y="0px" width="436px"
	 height="68.8px" viewBox="0 0 436 68.8" style="enable-background:new 0 0 436 68.8;" xml:space="preserve">
<style type="text/css">
	.st0{fill:#FFFFFF;}
</style>
<g id="Camada_1">
</g>
<g id="Layer_1">
	<g>
		<path class="st0" d="M35.7,43.1h-0.2c-0.8,1.3-1.7,2.5-2.9,3.4c-1.2,1-2.4,1.8-3.8,2.4c-1.4,0.6-2.8,1.1-4.3,1.4
			c-1.5,0.3-3,0.5-4.4,0.5c-2.9,0-5.6-0.5-8.1-1.5c-2.5-1-4.6-2.4-6.4-4.2c-1.8-1.8-3.1-3.9-4.1-6.4c-1-2.5-1.5-5.2-1.5-8.1
			s0.5-5.6,1.5-8.1c1-2.5,2.4-4.6,4.1-6.4C7.4,14.4,9.5,13,12,12c2.5-1,5.2-1.5,8.1-1.5c1.4,0,2.9,0.2,4.4,0.5
			c1.5,0.3,2.9,0.8,4.3,1.4c1.4,0.6,2.6,1.4,3.8,2.4c1.2,1,2.1,2.1,2.9,3.4h0.2v-6.7h5v57.2h-5V43.1z M36.2,30.7
			c0-2.2-0.4-4.2-1.2-6.1c-0.8-1.9-2-3.6-3.4-5c-1.4-1.4-3.1-2.5-5.1-3.4c-1.9-0.8-4-1.2-6.3-1.2c-2.3,0-4.4,0.4-6.3,1.2
			c-1.9,0.8-3.5,1.9-4.8,3.4c-1.3,1.4-2.3,3.1-3,5c-0.7,1.9-1,3.9-1,6.1c0,2.2,0.3,4.2,1,6.1c0.7,1.9,1.7,3.6,3,5
			c1.3,1.4,2.9,2.5,4.8,3.4c1.9,0.8,4,1.2,6.3,1.2c2.3,0,4.4-0.4,6.3-1.2c1.9-0.8,3.6-2,5.1-3.4c1.4-1.4,2.6-3.1,3.4-5
			C35.8,34.9,36.2,32.9,36.2,30.7"/>
		<path class="st0" d="M81.1,39.1c0,0.7,0,1.6,0.1,2.6c0.1,1,0.1,2.1,0.1,3.1c0,1.1,0.1,2,0.1,2.9c0.1,0.9,0.1,1.6,0.1,2.1h-5
			c-0.1-1.4-0.1-2.8-0.1-4.1c0-1.3-0.1-2.2-0.2-2.6H76c-1,2.1-2.7,3.9-5,5.4c-2.3,1.5-5,2.3-8.1,2.3c-3,0-5.4-0.5-7.3-1.4
			c-1.9-0.9-3.4-2.2-4.5-3.7c-1.1-1.5-1.8-3.3-2.2-5.3c-0.4-2-0.6-4-0.6-6.1V11.5h5v22.6c0,1.6,0.1,3.1,0.4,4.5
			c0.3,1.5,0.8,2.8,1.5,3.9c0.7,1.2,1.7,2.1,2.9,2.8c1.2,0.7,2.9,1,4.9,1c1.8,0,3.6-0.3,5.2-1c1.6-0.6,3-1.6,4.2-2.9
			c1.2-1.3,2.1-2.9,2.8-4.9c0.7-2,1-4.3,1-6.9V11.5h5V39.1z"/>
		<path class="st0" d="M120.5,33.8c0,1.9,0,3.6,0,5.1c0,1.5,0.1,2.9,0.1,4.2c0.1,1.3,0.1,2.5,0.2,3.6c0.1,1.1,0.2,2.2,0.4,3.3h-4.7
			c-0.3-1.9-0.5-4-0.5-6.2h-0.2c-1.4,2.5-3.2,4.3-5.4,5.5c-2.1,1.2-4.8,1.7-8.1,1.7c-1.7,0-3.3-0.2-4.9-0.6c-1.6-0.4-3-1.1-4.3-2
			c-1.3-0.9-2.3-2.1-3.1-3.5c-0.8-1.4-1.2-3.2-1.2-5.2c0-2.9,0.7-5.3,2.2-7c1.5-1.7,3.3-3,5.5-3.9c2.2-0.9,4.5-1.4,7-1.7
			c2.5-0.3,4.6-0.4,6.5-0.4h5.8v-2.3c0-3.3-1-5.7-3.1-7.1c-2-1.4-4.6-2.2-7.7-2.2c-4.4,0-8.3,1.4-11.7,4.3l-2.9-3.4
			c1.8-1.8,4.1-3.1,6.8-4c2.7-0.9,5.3-1.4,7.8-1.4c4.6,0,8.3,1.1,11.1,3.3c2.8,2.2,4.2,5.7,4.2,10.6V33.8z M110.5,30.6
			c-2.1,0-4.1,0.1-6.1,0.4c-2,0.3-3.7,0.7-5.3,1.4c-1.6,0.7-2.8,1.5-3.8,2.7c-0.9,1.1-1.4,2.5-1.4,4.1c0,1.2,0.3,2.2,0.8,3.1
			c0.5,0.9,1.2,1.7,2,2.2c0.8,0.6,1.8,1,2.8,1.3c1,0.3,2.1,0.5,3.1,0.5c2.7,0,4.8-0.4,6.6-1.2c1.7-0.8,3.1-1.8,4.1-3
			c1-1.2,1.7-2.7,2.1-4.2c0.4-1.6,0.6-3.2,0.6-4.8v-2.6H110.5z"/>
		<path class="st0" d="M148.3,16h-10.9v25c0,1.7,0.5,3,1.4,4c0.9,0.9,2.2,1.4,3.9,1.4c0.9,0,1.9-0.1,2.9-0.4c1-0.2,1.9-0.6,2.8-1
			l0.4,4.5c-0.9,0.3-2,0.6-3.2,0.9c-1.2,0.3-2.3,0.4-3.2,0.4c-1.8,0-3.3-0.3-4.6-0.8c-1.3-0.5-2.3-1.2-3.1-2.1
			c-0.8-0.9-1.3-1.9-1.7-3.1c-0.4-1.2-0.5-2.5-0.5-3.9V16h-8.3v-4.5h8.3v-11h5v11h10.9V16z"/>
		<path class="st0" d="M153.1,22.3c0-0.7,0-1.6-0.1-2.6c-0.1-1-0.1-2.1-0.1-3.1c0-1.1-0.1-2-0.1-2.9c-0.1-0.9-0.1-1.6-0.1-2.1h5
			c0.1,1.4,0.1,2.8,0.1,4.1c0,1.3,0.1,2.2,0.2,2.6c1.3-2.3,2.9-4.1,4.9-5.6c2-1.4,4.4-2.2,7.3-2.2c0.5,0,1,0,1.5,0.1
			c0.5,0.1,1,0.2,1.5,0.3l-0.6,4.9c-0.7-0.2-1.3-0.3-1.9-0.3c-2.2,0-4,0.3-5.6,1c-1.6,0.7-2.9,1.6-3.9,2.9c-1,1.2-1.8,2.6-2.3,4.3
			c-0.5,1.6-0.7,3.4-0.7,5.3v20.9h-5V22.3z"/>
		<path class="st0" d="M172.9,30.7c0-2.9,0.5-5.6,1.5-8.1c1-2.5,2.4-4.6,4.1-6.4c1.8-1.8,3.9-3.2,6.4-4.2c2.5-1,5.2-1.5,8.1-1.5
			c2.9,0,5.6,0.5,8.1,1.5c2.5,1,4.6,2.4,6.4,4.2c1.8,1.8,3.2,3.9,4.2,6.4c1,2.5,1.5,5.2,1.5,8.1s-0.5,5.6-1.5,8.1
			c-1,2.5-2.4,4.6-4.2,6.4c-1.8,1.8-3.9,3.2-6.4,4.2c-2.5,1-5.2,1.5-8.1,1.5c-2.9,0-5.6-0.5-8.1-1.5c-2.5-1-4.6-2.4-6.4-4.2
			c-1.8-1.8-3.2-3.9-4.1-6.4C173.4,36.3,172.9,33.6,172.9,30.7 M177.9,30.7c0,2.2,0.3,4.2,1,6.1c0.7,1.9,1.7,3.6,3,5
			c1.3,1.4,2.9,2.5,4.8,3.4c1.9,0.8,4,1.2,6.3,1.2c2.3,0,4.4-0.4,6.3-1.2c1.9-0.8,3.5-2,4.8-3.4c1.3-1.4,2.3-3.1,3-5
			c0.7-1.9,1-3.9,1-6.1c0-2.2-0.3-4.2-1-6.1c-0.7-1.9-1.7-3.6-3-5c-1.3-1.4-2.9-2.5-4.8-3.4c-1.9-0.8-4-1.2-6.3-1.2
			c-2.3,0-4.4,0.4-6.3,1.2c-1.9,0.8-3.5,1.9-4.8,3.4c-1.3,1.4-2.3,3.1-3,5C178.2,26.5,177.9,28.5,177.9,30.7"/>
		<polygon class="st0" points="237.4,49.9 230.2,49.9 214.4,11 221.9,11 234.1,41.5 234.2,41.5 245.8,11 252.7,11 		"/>
		<path class="st0" d="M290.2,42.8c-2.3,3-4.9,5.1-7.6,6.3c-2.8,1.2-6,1.8-9.6,1.8c-3,0-5.8-0.5-8.2-1.6c-2.4-1.1-4.5-2.5-6.2-4.4
			c-1.7-1.8-3-4-3.9-6.5c-0.9-2.5-1.4-5.1-1.4-8c0-3,0.5-5.7,1.5-8.3c1-2.5,2.4-4.7,4.1-6.5c1.8-1.8,3.9-3.2,6.3-4.2
			c2.4-1,5.1-1.5,8-1.5c2.7,0,5.2,0.5,7.5,1.4c2.3,0.9,4.2,2.2,5.8,4c1.6,1.7,2.9,3.9,3.8,6.4c0.9,2.5,1.3,5.4,1.3,8.6v2.1h-31.4
			c0.1,1.7,0.5,3.2,1.2,4.8c0.7,1.5,1.6,2.9,2.7,4c1.1,1.1,2.4,2,3.9,2.7c1.5,0.7,3.1,1,4.9,1c2.8,0,5.2-0.5,7.1-1.5
			c1.9-1,3.7-2.5,5.2-4.4L290.2,42.8z M284.7,27c-0.1-3.3-1.2-6-3.2-8c-2-2-4.9-3-8.5-3c-3.6,0-6.5,1-8.7,3c-2.2,2-3.5,4.6-4,8
			H284.7z"/>
		<path class="st0" d="M297.5,20.2c0-1.8-0.1-3.4-0.2-5c-0.1-1.5-0.2-3-0.2-4.2h6.1c0,1.1,0,2.1,0.1,3.2c0.1,1,0.1,2.1,0.1,3.2h0.2
			c0.4-0.9,1.1-1.9,1.9-2.7c0.8-0.9,1.8-1.7,2.9-2.4c1.1-0.7,2.3-1.2,3.7-1.7c1.4-0.4,2.9-0.6,4.5-0.6c2.5,0,4.7,0.4,6.6,1.2
			c1.9,0.8,3.4,1.9,4.6,3.2c1.2,1.4,2.1,3.1,2.7,5c0.6,2,0.9,4.1,0.9,6.4v24h-6.5V26.5c0-3.3-0.7-5.8-2.2-7.7
			c-1.4-1.9-3.7-2.8-6.7-2.8c-2.1,0-3.9,0.4-5.4,1.1c-1.5,0.7-2.8,1.7-3.7,3.1c-1,1.3-1.7,2.9-2.2,4.7c-0.5,1.8-0.7,3.8-0.7,6.1
			v18.9h-6.5V20.2z"/>
		<path class="st0" d="M360.7,16.5h-11.4v19.4c0,1.3,0,2.4,0.1,3.5c0.1,1.1,0.3,2,0.7,2.8c0.4,0.8,1,1.4,1.7,1.9
			c0.8,0.5,1.9,0.7,3.3,0.7c0.9,0,1.9-0.1,2.9-0.3c1-0.2,1.9-0.6,2.8-1l0.2,5.9c-1.1,0.5-2.3,0.9-3.7,1.1c-1.4,0.2-2.6,0.3-3.9,0.3
			c-2.3,0-4.2-0.3-5.6-0.9c-1.4-0.6-2.5-1.5-3.2-2.6c-0.8-1.1-1.3-2.5-1.5-4.1c-0.2-1.6-0.4-3.4-0.4-5.4V16.5h-8.5V11h8.5V0h6.5v11
			h11.4V16.5z"/>
		<path class="st0" d="M362.3,30.4c0-3,0.5-5.8,1.6-8.3c1.1-2.5,2.5-4.6,4.3-6.4c1.8-1.8,4-3.2,6.5-4.2c2.5-1,5.3-1.5,8.3-1.5
			c3,0,5.8,0.5,8.3,1.5c2.5,1,4.7,2.4,6.6,4.2c1.8,1.8,3.3,3.9,4.3,6.4c1.1,2.5,1.6,5.3,1.6,8.3c0,3-0.5,5.8-1.6,8.3
			c-1.1,2.5-2.5,4.6-4.3,6.4c-1.8,1.8-4,3.2-6.6,4.2c-2.5,1-5.3,1.5-8.3,1.5c-3,0-5.8-0.5-8.3-1.5c-2.5-1-4.7-2.4-6.5-4.2
			c-1.8-1.8-3.3-3.9-4.3-6.4C362.8,36.3,362.3,33.5,362.3,30.4 M369.3,30.4c0,2,0.3,3.9,1,5.7c0.6,1.7,1.6,3.3,2.8,4.6
			c1.2,1.3,2.7,2.3,4.4,3.1c1.7,0.8,3.6,1.1,5.7,1.1c2.1,0,4-0.4,5.7-1.1c1.7-0.7,3.1-1.8,4.4-3.1c1.2-1.3,2.1-2.8,2.8-4.6
			c0.6-1.7,1-3.6,1-5.7c0-2-0.3-3.9-1-5.7c-0.6-1.7-1.6-3.3-2.8-4.6c-1.2-1.3-2.7-2.3-4.4-3.1c-1.7-0.7-3.6-1.1-5.7-1.1
			c-2.1,0-4,0.4-5.7,1.1c-1.7,0.7-3.1,1.8-4.4,3.1c-1.2,1.3-2.1,2.8-2.8,4.6C369.6,26.5,369.3,28.4,369.3,30.4"/>
		<path class="st0" d="M410.5,39.7c1.3,1.6,2.7,2.9,4.2,3.8c1.5,0.9,3.4,1.4,5.8,1.4c1,0,2-0.1,3-0.3c1-0.2,1.9-0.6,2.8-1.1
			c0.8-0.5,1.5-1.1,2-1.9c0.5-0.7,0.7-1.6,0.7-2.7c0-1-0.2-1.9-0.7-2.6c-0.5-0.7-1.1-1.2-1.9-1.7c-0.8-0.5-1.7-0.8-2.7-1.1
			c-1-0.3-2-0.5-3.1-0.7c-1.8-0.4-3.6-0.8-5.2-1.3c-1.7-0.5-3.1-1.2-4.4-2c-1.2-0.8-2.2-1.8-3-3.1c-0.7-1.3-1.1-2.9-1.1-4.9
			c0-1.9,0.4-3.5,1.2-5c0.8-1.4,1.9-2.6,3.3-3.6c1.4-0.9,2.9-1.7,4.6-2.2c1.7-0.5,3.5-0.7,5.3-0.7c2.8,0,5.3,0.6,7.7,1.7
			c2.3,1.1,4.2,2.9,5.5,5.4l-5.4,3.6c-0.8-1.4-1.9-2.5-3.3-3.4c-1.4-0.9-3-1.3-4.9-1.3c-0.9,0-1.8,0.1-2.7,0.3
			c-0.9,0.2-1.7,0.6-2.4,1c-0.7,0.4-1.3,1-1.8,1.7c-0.5,0.7-0.7,1.5-0.7,2.4c0,0.8,0.3,1.5,0.8,2.1c0.5,0.6,1.2,1.1,2.2,1.5
			c0.9,0.4,2,0.8,3.2,1.2c1.2,0.3,2.4,0.6,3.7,0.8c1.7,0.3,3.3,0.8,4.9,1.3c1.5,0.5,2.9,1.2,4.1,2.1c1.2,0.9,2.1,2,2.7,3.3
			c0.7,1.3,1,3,1,4.9c0,2.2-0.4,4.1-1.3,5.6c-0.9,1.6-2.1,2.8-3.5,3.8c-1.5,1-3.1,1.7-5,2.1c-1.9,0.4-3.7,0.7-5.7,0.7
			c-3.3,0-6.2-0.5-8.6-1.5c-2.4-1-4.6-2.9-6.5-5.7L410.5,39.7z"/>
	</g>
</g>
</svg>
